<?xml version="1.0" encoding="UTF-8"?>
<svg xmlns="http://www.w3.org/2000/svg" width="152" height="164" viewBox="0 0 152 164" style="background-color:transparent;">
<g>
<path d="M 104.96 149.15 C98.13,151.80 81.77,152.61 75.00,150.63 C58.70,145.86 44.65,132.51 39.44,116.83 C37.93,112.28 38.14,109.21 39.80,111.53 C40.80,112.91 43.00,113.20 43.00,111.94 C43.00,111.36 43.45,111.16 44.00,111.50 C44.62,111.88 45.04,109.90 45.11,106.31 L 45.22 100.50 L 46.52 107.64 C48.34,117.56 52.25,124.98 59.13,131.55 C69.84,141.76 83.72,145.82 96.56,142.50 C104.69,140.40 113.13,140.12 121.50,141.69 C124.80,142.31 127.88,142.46 128.34,142.02 C128.80,141.58 128.24,136.62 127.10,131.00 C125.95,125.38 125.33,120.28 125.71,119.65 C126.10,119.03 127.19,115.82 128.14,112.51 C129.46,107.89 129.88,107.20 129.94,109.50 C130.01,111.80 130.25,112.15 130.98,111.00 C131.77,109.76 132.29,109.72 133.97,110.76 C135.17,111.50 136.00,111.60 136.00,111.01 C136.00,110.45 136.42,110.00 136.93,110.00 C137.79,110.00 134.95,121.65 133.54,123.93 C133.20,124.48 134.07,130.45 135.46,137.20 C136.86,143.95 138.00,149.82 138.00,150.24 C138.00,151.44 134.11,151.15 121.84,149.02 L 110.42 147.03 ZM 98.25 136.95 C96.19,137.52 91.35,137.98 87.50,137.97 C80.06,137.95 72.23,135.44 66.17,131.12 C59.73,126.54 51.87,114.04 52.10,108.76 C52.19,106.60 52.23,106.61 52.89,109.00 C53.88,112.56 59.31,112.78 62.69,109.40 C65.09,107.00 67.00,106.96 67.00,109.33 C67.00,112.06 72.41,118.19 77.29,120.99 C80.96,123.10 83.84,123.98 87.03,123.99 C91.18,124.00 92.02,124.46 96.78,129.28 C99.65,132.19 102.00,134.87 102.00,135.23 C102.00,135.60 100.31,136.37 98.25,136.95 ZM 119.43 109.86 C120.72,112.35 120.68,112.60 118.99,112.73 C116.46,112.92 114.69,110.54 115.49,108.03 C116.27,105.57 117.51,106.15 119.43,109.86 Z" fill="rgb(54,158,215)"/>
<path d="M 119.43 109.86 C117.51,106.15 116.27,105.57 115.49,108.03 C115.13,109.18 115.30,110.29 115.83,111.15 C115.14,110.57 114.43,109.90 113.78,109.18 C110.81,105.89 110.24,104.43 109.71,98.79 C108.74,88.44 102.70,81.16 93.01,78.68 C83.85,76.34 76.29,79.39 69.16,88.32 C65.88,92.43 65.83,92.64 66.16,101.08 C66.29,104.32 66.45,106.49 66.78,108.20 C66.22,107.07 64.62,107.47 62.69,109.40 C59.31,112.78 53.88,112.56 52.89,109.00 C52.30,106.87 52.21,106.63 52.13,108.14 C51.11,99.82 53.11,90.11 57.53,84.65 C58.93,82.92 61.07,80.26 62.29,78.75 C63.50,77.24 65.50,75.87 66.73,75.70 C67.96,75.52 70.01,74.40 71.30,73.19 C72.58,71.99 74.67,71.00 75.95,71.00 C77.22,71.00 80.01,70.48 82.13,69.84 C85.03,68.97 87.98,68.97 93.99,69.82 C100.84,70.79 102.75,71.52 107.25,74.89 C119.98,84.43 122.37,88.48 123.70,102.78 C124.25,108.70 122.31,113.00 119.09,113.00 C118.83,113.00 118.47,112.88 118.06,112.68 C118.35,112.73 118.66,112.75 118.99,112.73 C120.68,112.60 120.72,112.35 119.43,109.86 ZM 47.58 112.30 C47.17,110.81 46.82,109.26 46.52,107.64 L 45.22 100.50 L 45.11 106.31 C45.04,109.90 44.62,111.88 44.00,111.50 C43.45,111.16 43.00,111.36 43.00,111.94 C43.00,113.20 40.80,112.91 39.80,111.53 C39.00,110.40 38.53,110.55 38.44,111.51 C37.34,102.86 38.25,91.25 40.92,85.54 C43.12,80.83 48.35,73.32 50.49,71.79 C52.41,70.42 53.32,72.87 51.77,75.23 C49.31,78.99 46.00,92.54 46.00,98.87 C46.00,103.77 46.52,108.21 47.58,112.30 ZM 135.91 116.80 C136.79,113.35 137.39,110.00 136.93,110.00 C136.42,110.00 136.00,110.45 136.00,111.01 C136.00,111.60 135.17,111.50 133.97,110.76 C132.29,109.72 131.77,109.76 130.98,111.00 C130.25,112.15 130.01,111.80 129.94,109.50 C129.88,107.20 129.46,107.89 128.14,112.51 C127.32,115.34 126.41,118.10 125.92,119.23 L 127.21 115.48 C128.34,112.19 129.49,106.30 129.76,102.38 C130.17,96.40 129.80,93.92 127.44,86.88 C125.90,82.27 124.05,77.61 123.32,76.53 C120.95,72.98 121.64,71.54 124.75,73.56 C129.83,76.85 134.22,84.85 136.92,95.72 C138.74,103.06 138.58,107.90 135.91,116.80 ZM 125.61 120.13 C125.50,121.64 126.10,126.11 127.09,130.97 L 125.15 121.47 ZM 75.00 150.63 C63.96,147.41 54.21,140.53 47.32,131.46 C54.23,140.43 64.11,147.45 75.00,150.63 C81.56,152.55 97.12,151.85 104.29,149.40 C97.12,151.85 81.56,152.55 75.00,150.63 ZM 54.39 116.24 C56.20,119.86 58.89,123.83 61.70,126.98 C58.80,123.95 56.33,120.35 54.39,116.24 ZM 69.49 114.16 C67.98,112.28 67.00,110.49 67.00,109.33 C67.00,109.26 67.00,109.19 66.99,109.12 C67.44,110.81 68.13,112.11 69.25,113.81 C69.33,113.92 69.41,114.04 69.49,114.16 ZM 71.84 134.40 C76.74,136.68 82.22,137.96 87.50,137.97 C81.88,137.96 76.59,136.72 71.84,134.40 ZM 77.82 121.29 C80.89,122.96 84.19,123.98 87.03,123.99 C84.00,123.98 81.24,123.18 77.82,121.29 ZM 133.47 124.47 C133.47,124.19 133.49,124.01 133.54,123.93 C133.62,123.80 133.71,123.64 133.80,123.46 ZM 136.03 139.98 C137.15,145.45 138.00,149.86 138.00,150.23 L 138.00 150.23 C137.99,149.85 137.15,145.48 136.03,139.98 Z" fill="rgb(90,202,245)"/>
<path d="M 47.58 112.30 C46.52,108.21 46.00,103.77 46.00,98.87 C46.00,92.54 49.31,78.99 51.77,75.23 C53.32,72.87 52.41,70.42 50.49,71.79 C48.35,73.32 43.12,80.83 40.92,85.54 C38.25,91.25 37.34,102.86 38.44,111.51 C38.35,112.45 38.61,114.15 39.25,116.22 C39.14,115.91 39.04,115.61 38.93,115.30 C34.79,102.86 37.41,85.54 45.11,74.33 C55.53,59.19 69.79,51.68 88.00,51.73 C95.80,51.75 98.73,52.23 104.38,54.38 C123.14,61.54 135.53,76.98 137.81,96.03 C138.18,99.18 138.30,102.06 138.12,104.95 C138.18,101.97 137.76,99.11 136.92,95.72 C134.22,84.85 129.83,76.85 124.75,73.56 C121.64,71.54 120.95,72.98 123.32,76.53 C124.05,77.61 125.90,82.27 127.44,86.88 C129.80,93.92 130.17,96.40 129.76,102.38 C129.49,106.30 128.34,112.19 127.21,115.48 L 127.19 115.54 C129.33,108.92 129.51,98.49 127.57,91.24 C124.55,79.87 116.01,69.84 105.00,64.70 C96.54,60.75 84.10,59.82 75.86,62.52 C52.95,70.01 42.14,92.63 47.70,112.72 ZM 123.79 104.64 C123.79,104.04 123.76,103.42 123.70,102.78 C122.37,88.48 119.98,84.43 107.25,74.89 C102.75,71.52 100.84,70.79 93.99,69.82 C87.98,68.97 85.03,68.97 82.13,69.84 C80.01,70.48 77.22,71.00 75.95,71.00 C74.67,71.00 72.58,71.99 71.30,73.19 C70.01,74.40 67.96,75.52 66.73,75.70 C65.50,75.87 63.50,77.24 62.29,78.75 C61.07,80.26 58.93,82.92 57.53,84.65 C54.42,88.49 52.50,94.46 52.00,100.56 C52.03,93.00 52.44,90.94 54.67,86.24 C57.96,79.28 64.83,72.44 71.68,69.30 C95.21,58.49 122.25,73.79 123.84,98.80 C123.96,100.65 123.93,102.66 123.79,104.64 ZM 66.10 99.48 C65.85,92.59 66.10,92.15 69.16,88.32 C76.29,79.39 83.85,76.34 93.01,78.68 C102.57,81.13 108.58,88.25 109.67,98.37 C108.38,91.77 103.44,85.65 96.50,82.38 C90.89,79.73 86.66,79.42 80.62,81.23 C75.51,82.75 68.69,89.39 67.02,94.45 C66.52,95.97 66.21,97.68 66.10,99.48 ZM 109.99 101.34 C110.50,104.98 111.31,106.45 113.78,109.18 C114.43,109.90 115.14,110.57 115.83,111.15 C116.31,111.93 117.10,112.50 118.06,112.68 C118.47,112.88 118.83,113.00 119.09,113.00 C121.17,113.00 122.71,111.22 123.40,108.36 C122.78,112.63 121.71,116.00 120.64,116.00 C119.97,116.00 117.30,113.85 114.71,111.22 C110.45,106.89 110.00,105.98 110.00,101.77 C110.00,101.63 110.00,101.49 109.99,101.34 ZM 101.47 141.46 C105.86,139.97 109.81,139.84 118.20,141.17 C112.59,140.44 106.98,140.54 101.47,141.46 ZM 69.31 113.89 C69.34,113.93 69.37,113.98 69.40,114.02 C69.35,113.95 69.30,113.88 69.25,113.81 C68.13,112.11 67.44,110.81 66.99,109.12 C66.98,108.75 66.90,108.44 66.79,108.20 C66.67,107.60 66.57,106.95 66.49,106.22 C67.01,109.14 67.97,111.87 69.31,113.89 ZM 77.36 121.03 C80.56,122.85 84.06,123.98 87.03,123.99 C84.00,123.98 81.24,123.18 77.82,121.29 C77.67,121.21 77.51,121.12 77.36,121.03 ZM 85.20 143.55 C87.65,143.65 90.33,143.53 92.95,143.24 C90.38,143.62 87.79,143.73 85.20,143.55 ZM 49.23 117.20 C51.35,122.36 54.63,127.25 59.13,131.55 C54.66,127.28 51.44,122.65 49.23,117.20 ZM 71.50 149.47 C65.68,147.32 60.35,144.18 55.69,140.24 C60.37,144.17 65.72,147.33 71.50,149.47 ZM 69.56 139.07 C65.87,137.14 62.36,134.62 59.13,131.55 C62.27,134.54 65.83,137.09 69.56,139.07 ZM 128.16 142.12 C128.24,142.09 128.30,142.05 128.34,142.01 C128.38,141.98 128.41,141.92 128.43,141.83 C128.41,141.92 128.38,141.98 128.34,142.02 C128.30,142.06 128.24,142.09 128.16,142.12 Z" fill="rgb(143,203,226)"/>
<path d="M 0.00 82.00 L 0.00 0.00 L 76.00 0.00 L 152.00 0.00 L 152.00 82.00 L 152.00 164.00 L 76.00 164.00 L 0.00 164.00 L 0.00 82.00 ZM 104.96 149.15 L 110.42 147.03 L 121.84 149.02 C134.14,151.15 138.00,151.44 138.00,150.23 C138.00,149.80 136.89,144.11 135.54,137.57 L 133.07 125.69 L 135.07 119.51 C138.03,110.33 138.77,104.06 137.81,96.03 C135.53,76.98 123.14,61.54 104.38,54.38 C98.73,52.23 95.80,51.75 88.00,51.73 C69.79,51.68 55.53,59.19 45.11,74.33 C37.41,85.54 34.79,102.86 38.93,115.30 C44.68,132.57 58.06,145.67 75.00,150.63 C81.77,152.61 98.13,151.80 104.96,149.15 ZM 80.18 142.99 C72.75,141.43 65.16,137.30 59.13,131.55 C36.21,109.68 45.20,72.55 75.86,62.52 C84.10,59.82 96.54,60.75 105.00,64.70 C116.01,69.84 124.55,79.87 127.57,91.24 C129.55,98.65 129.32,109.39 127.04,115.98 C125.18,121.39 125.18,121.60 127.17,131.34 C128.27,136.77 128.80,141.58 128.34,142.01 C127.88,142.45 125.25,142.40 122.50,141.90 C111.04,139.84 106.55,139.74 101.53,141.44 C95.43,143.51 85.91,144.20 80.18,142.99 ZM 98.25 136.95 C100.31,136.37 102.00,135.60 102.00,135.23 C102.00,134.87 99.65,132.19 96.78,129.28 C92.02,124.46 91.18,124.00 87.03,123.99 C81.03,123.98 72.93,119.36 69.31,113.89 C66.13,109.08 65.09,100.29 67.02,94.45 C68.69,89.39 75.51,82.75 80.62,81.23 C86.66,79.42 90.89,79.73 96.50,82.38 C104.62,86.21 110.00,93.93 110.00,101.77 C110.00,105.98 110.45,106.89 114.71,111.22 C117.30,113.85 119.97,116.00 120.64,116.00 C122.47,116.00 124.31,106.14 123.84,98.80 C122.25,73.79 95.21,58.49 71.68,69.30 C64.83,72.44 57.96,79.28 54.67,86.24 C52.36,91.12 52.00,93.15 52.00,101.45 C52.00,109.14 52.43,111.95 54.17,115.76 C60.52,129.66 72.94,137.93 87.50,137.97 C91.35,137.98 96.19,137.52 98.25,136.95 Z" fill="none"/>
</g>
</svg>